# Alias OBJ Model File
# Exported from SketchUp, (c) 2000-2012 Trimble Navigation Limited
# File units = inches

mtllib wire.mtl

g Mesh1 Model

usemtl Sandstone
v 167.574 6.7351 139.188
vt 0.974482 -6.53819
vn -0.178195 -0.983995 -2.01092e-16
v 163.3 7.7086 139.188
vt 1.09629 -6.53819
vn -0.265505 -0.96411 -1.89617e-16
v 163.3 7.7086 139.063
vt 1.09629 -6.53472
v 167.574 6.7351 139.063
vt 0.974482 -6.53472
f 1/1/1 2/2/2 3/3/2 4/4/1 

usemtl FrontColor
v 197.498 10.7801 139.188
vt -197.498 10.7801
vn 0 0 -1
v 201.36 12.8535 139.188
vt -201.36 12.8535
v 201.36 12.791 139.188
vt -201.36 12.791
v 209.673 12.791 139.188
vt -209.673 12.791
v 209.673 0.228521 139.188
vt -209.673 0.228521
v 144.61 0.228521 139.188
vt -144.61 0.228521
v 144.61 12.791 139.188
vt -144.61 12.791
v 151.235 12.791 139.188
vt -151.235 12.791
v 151.235 12.8535 139.188
vt -151.235 12.8535
v 155.098 10.7801 139.188
vt -155.098 10.7801
v 159.13 9.06056 139.188
vt -159.13 9.06056
vt -163.3 7.7086
vt -167.574 6.7351
v 171.918 6.14786 139.188
vt -171.918 6.14786
v 176.298 5.95159 139.188
vt -176.298 5.95159
v 180.677 6.14786 139.188
vt -180.677 6.14786
v 185.021 6.7351 139.188
vt -185.021 6.7351
v 189.295 7.7086 139.188
vt -189.295 7.7086
v 193.465 9.06056 139.188
vt -193.465 9.06056
f 5/5/3 6/6/3 7/7/3 8/8/3 9/9/3 10/10/3 11/11/3 12/12/3 13/13/3 14/14/3 15/15/3 2/16/3 1/17/3 16/18/3 17/19/3 18/20/3 19/21/3 20/22/3 21/23/3 

usemtl Sandstone
vt 5.32907e-15 -6.53819
vn 0.472977 -0.881075 -8.69258e-17
vt 0.12181 -6.53819
vn 0.433055 -0.901368 -1.22834e-16
v 197.498 10.7801 139.063
vt 0.12181 -6.53472
vn 0.639106 -0.769118 -9.89929e-17
v 197.498 10.7801 0.1875
vt 0.12181 -2.67708
vn 0.789308 -0.613997 -4.89478e-17
v 201.36 12.8535 0.1875
vt 5.32907e-15 -2.67708
f 6/24/4 5/25/5 22/26/6 23/27/7 24/28/4 

vt 0.243621 -6.53819
vn 0.350686 -0.936493 -1.68796e-16
v 193.465 9.06056 139.063
vt 0.243621 -6.53472
f 5/25/5 21/29/8 25/30/8 22/26/6 

vt 0.365431 -6.53819
vn 0.265505 -0.96411 -1.8923e-16
v 189.295 7.7086 139.063
vt 0.365431 -6.53472
f 21/29/8 20/31/9 26/32/9 25/30/8 

vt 0.487241 -6.53819
vn 0.178195 -0.983995 -2.00944e-16
v 185.021 6.7351 139.063
vt 0.487241 -6.53472
f 20/31/9 19/33/10 27/34/10 26/32/9 

vt 0.609051 -6.53819
vn 0.0894561 -0.995991 -2.0328e-16
v 180.677 6.14786 139.063
vt 0.609051 -6.53472
f 19/33/10 18/35/11 28/36/11 27/34/10 

vt 0.730862 -6.53819
vn 9.51583e-16 -1 -2.04247e-16
v 176.298 5.95159 139.063
vt 0.730862 -6.53472
f 18/35/11 17/37/12 29/38/12 28/36/11 

vt 0.852672 -6.53819
vn -0.0894561 -0.995991 -2.0348e-16
v 171.918 6.14786 139.063
vt 0.852672 -6.53472
f 17/37/12 16/39/13 30/40/13 29/38/12 

f 16/39/13 1/1/1 4/4/1 30/40/13 

usemtl Water_Pool_Light
v 168.584 12.5171 139.063
vt 1.75608 0.130386
vn 0 0 1
v 155.098 10.7801 139.063
vt 1.6156 0.112293
v 159.13 9.06056 139.063
vt 1.6576 0.0943808
vt 1.70104 0.080298
vt 1.74556 0.0701573
vt 1.79082 0.0640402
vt 1.83643 0.0619958
vt 1.88205 0.0640402
vt 1.9273 0.0701573
vt 1.97183 0.080298
vt 2.01526 0.0943808
vt 2.05727 0.112293
v 193.682 11.5067 139.063
vt 2.01753 0.119861
v 189.018 11.5533 139.063
vt 1.96894 0.120347
v 184.293 10.215 139.063
vt 1.91972 0.106406
v 179.152 9.80456 139.063
vt 1.86617 0.102131
f 31/41/14 32/42/14 33/43/14 3/44/14 4/45/14 30/46/14 29/47/14 28/48/14 27/49/14 26/50/14 25/51/14 22/52/14 34/53/14 35/54/14 36/55/14 37/56/14 

v 168.584 12.5171 0.1875
vt 0.00195313 1.75835
vn 0.0615397 0.998105 4.02716e-16
v 155.098 10.7801 0.1875
vt 0.00195313 1.61671
vn -0.775225 -0.631685 -4.84711e-17
vt 1.44857 1.61671
vn -0.625263 -0.780414 -9.96628e-17
vt 1.44857 1.75835
f 38/57/15 39/58/16 32/59/17 31/60/15 

vt -1.6156 0.112293
vn 7.43121e-17 4.44076e-16 -1
vt -1.75608 0.130386
v 179.152 9.80456 0.1875
vt -1.86617 0.102131
v 184.293 10.215 0.1875
vt -1.91972 0.106406
v 189.018 11.5533 0.1875
vt -1.96894 0.120347
v 193.682 11.5067 0.1875
vt -2.01753 0.119861
vt -2.05727 0.112293
v 193.465 9.06056 0.1875
vt -2.01526 0.0943808
v 189.295 7.7086 0.1875
vt -1.97183 0.080298
v 185.021 6.7351 0.1875
vt -1.9273 0.0701573
v 180.677 6.14786 0.1875
vt -1.88205 0.0640402
v 176.298 5.95159 0.1875
vt -1.83643 0.0619958
v 171.918 6.14786 0.1875
vt -1.79082 0.0640402
v 167.574 6.7351 0.1875
vt -1.74556 0.0701573
v 163.3 7.7086 0.1875
vt -1.70104 0.080298
v 159.13 9.06056 0.1875
vt -1.6576 0.0943808
f 39/61/18 38/62/18 40/63/18 41/64/18 42/65/18 43/66/18 23/67/18 44/68/18 45/69/18 46/70/18 47/71/18 48/72/18 49/73/18 50/74/18 51/75/18 52/76/18 

vt -0.00195312 -1.78219
vn 0.0856823 0.996323 4.4881e-16
vt -0.00195312 -1.66853
vt -1.44857 -1.66853
vt -1.44857 -1.78219
f 40/77/19 38/78/15 31/79/15 37/80/19 

vt 0.00195313 1.9221
vn -0.176907 0.984228 4.23925e-16
vt 0.00195313 1.86838
vt 1.44857 1.86838
vt 1.44857 1.9221
f 41/81/20 40/82/19 37/83/19 36/84/20 

vt 0.00195313 1.92721
vn -0.132616 0.991168 4.30299e-16
vt 0.00195313 1.87606
vt 1.44857 1.87606
vt 1.44857 1.92721
f 42/85/21 41/86/20 36/87/20 35/88/21 

vt -0.00195312 -2.01623
vn 0.0989246 0.995095 3.93564e-16
vt -0.00195312 -1.96764
vt -1.44857 -1.96764
vt -1.44857 -2.01623
f 43/89/22 42/90/21 35/91/21 34/92/22 

vt -0.00195312 -1.99995
vt -0.00195312 -1.95949
vt -1.44857 -1.95949
vt -1.44857 -1.99995
f 23/93/7 43/94/22 34/95/22 22/96/6 

usemtl FrontColor
vt -0.1875 181.514
vn 0.350686 -0.936493 -3.38546e-16
vt -0.1875 185.898
vt -139.063 185.898
vt -139.063 181.514
f 44/97/23 23/98/7 22/99/6 25/100/23 

usemtl Granite_Brown
v 209.673 0.228521 0.1875
vt 8.73636 0.0095217
v 209.673 12.791 0.1875
vt 8.73636 0.532959
v 201.36 12.791 0.1875
vt 8.39001 0.532959
vt 8.39001 0.535563
vt 8.22907 0.449172
vt 8.06106 0.377523
vt 7.88731 0.321192
vt 7.70922 0.280629
vt 7.52821 0.256161
vt 7.34574 0.247983
vt 7.16326 0.256161
vt 6.98226 0.280629
vt 6.80416 0.321192
vt 6.63041 0.377523
vt 6.4624 0.449172
v 151.235 12.8535 0.1875
vt 6.30147 0.535563
v 151.235 12.791 0.1875
vt 6.30147 0.532959
v 144.61 12.791 0.1875
vt 6.02542 0.532959
v 144.61 0.228521 0.1875
vt 6.02542 0.0095217
f 53/101/14 54/102/14 55/103/14 24/104/14 23/105/14 44/106/14 45/107/14 46/108/14 47/109/14 48/110/14 49/111/14 50/112/14 51/113/14 52/114/14 39/115/14 56/116/14 57/117/14 58/118/14 59/119/14 

usemtl FrontColor
vt 139.188 0.228521
vn -1 0 -0
vt 139.188 12.791
vt 0.1875 12.791
vt 0.1875 0.228521
f 9/120/24 8/121/24 54/122/24 53/123/24 

usemtl Granite_Brown
vt -8.73636 -5.79948
vn 0 -1 -0
vt -8.39001 -5.79948
vt -8.39001 -0.0078125
vt -8.73636 -0.0078125
f 8/124/25 7/125/25 55/126/25 54/127/25 

vt 5.79948 0.535563
vt 0.0078125 0.535563
vt 0.0078125 0.532959
vt 5.79948 0.532959
f 6/128/24 24/129/24 55/130/24 7/131/24 

usemtl FrontColor
vt 144.61 -139.188
vn 0 1 -0
vt 209.673 -139.188
vt 209.673 -0.1875
vt 144.61 -0.1875
f 10/132/26 9/133/26 53/134/26 59/135/26 

vt -139.188 12.791
vn 1 0 -0
vt -139.188 0.228521
vt -0.1875 0.228521
vt -0.1875 12.791
f 11/136/27 10/137/27 59/138/27 58/139/27 

usemtl Granite_Brown
vt -6.30147 -5.79948
vn -6.97136e-15 -1 -0
vt -6.02542 -5.79948
vt -6.02542 -0.0078125
vt -6.30147 -0.0078125
f 12/140/28 11/141/28 58/142/28 57/143/28 

vt -0.0078125 0.535563
vn 1 -6.97136e-15 -0
vt -5.79948 0.535563
vt -5.79948 0.532959
vt -0.0078125 0.532959
f 56/144/29 13/145/29 12/146/29 57/147/29 

usemtl Sandstone
vt 1.33991 -6.53819
vn -0.433055 -0.901368 -1.22942e-16
vt 1.46172 -6.53819
vn -0.472977 -0.881075 -8.69258e-17
vt 1.46172 -2.67708
vt 1.33991 -2.67708
vt 1.33991 -6.53472
f 14/148/30 13/149/31 56/150/31 39/151/16 32/152/17 

usemtl FrontColor
vt 0.1875 -138.438
vt 0.1875 -142.822
vn -0.350686 -0.936493 -3.38721e-16
vt 139.062 -142.822
vt 139.062 -138.438
f 39/153/16 52/154/32 33/155/32 32/156/17 

vt 0.1875 -148.579
vt 0.1875 -152.963
vn -0.265505 -0.96411 -3.79718e-16
vt 139.062 -152.963
vt 139.062 -148.579
f 52/157/32 51/158/33 3/159/33 33/160/32 

vt 0.1875 -157.51
vt 0.1875 -161.894
vn -0.178195 -0.983995 -4.0276e-16
vt 139.062 -161.894
vt 139.062 -157.51
f 51/161/33 50/162/34 4/163/34 3/164/33 

vt 0.1875 -165.162
vt 0.1875 -169.545
vn -0.0894561 -0.995991 -4.0749e-16
vt 139.062 -169.545
vt 139.062 -165.162
f 50/165/34 49/166/35 30/167/35 4/168/34 

vt 0.1875 -171.471
vt 0.1875 -175.854
vn 9.55056e-16 -1 -4.09314e-16
vt 139.062 -175.854
vt 139.062 -171.471
f 49/169/35 48/170/36 29/171/36 30/172/35 

vt -0.1875 176.387
vt -0.1875 180.771
vn 0.0894561 -0.995991 -4.0749e-16
vt -139.063 180.771
vt -139.063 176.387
f 48/173/36 47/174/37 28/175/37 29/176/36 

vt -0.1875 179.872
vt -0.1875 184.256
vn 0.178195 -0.983995 -4.0276e-16
vt -139.063 184.256
vt -139.063 179.872
f 47/177/37 46/178/38 27/179/38 28/180/37 

vt -0.1875 181.897
vt -0.1875 186.281
vn 0.265505 -0.96411 -3.79543e-16
vt -139.063 186.281
vt -139.063 181.897
f 46/181/38 45/182/39 26/183/39 27/184/38 

vt -0.1875 182.446
vt -0.1875 186.829
vt -139.063 186.829
vt -139.063 182.446
f 45/185/39 44/186/23 25/187/23 26/188/39 

usemtl Sandstone
vt 1.2181 -6.53819
vn -0.350686 -0.936493 -1.69292e-16
vt 1.2181 -6.53472
f 2/2/2 15/189/40 33/190/40 3/3/2 

f 15/189/40 14/148/30 32/152/17 33/190/40 

