# Alias OBJ Model File
# Exported from SketchUp, (c) 2000-2012 Trimble Navigation Limited
# File units = inches

mtllib wire_turn.mtl

g Mesh1 Model

usemtl Sandstone
v 189.295 7.7086 139.188
vt 0.365431 -6.53819
vn 0.265505 -0.96411 -1.8923e-16
v 185.021 6.7351 139.188
vt 0.487241 -6.53819
vn 0.178195 -0.983995 -2.00944e-16
v 185.021 6.7351 139.063
vt 0.487241 -6.53472
v 189.295 7.7086 139.063
vt 0.365431 -6.53472
f 1/1/1 2/2/2 3/3/2 4/4/1 

usemtl FrontColor
v 197.498 10.7801 139.188
vt -197.498 10.7801
vn 0 0 -1
v 201.36 12.8535 139.188
vt -201.36 12.8535
v 201.36 12.791 139.188
vt -201.36 12.791
v 209.673 12.791 139.188
vt -209.673 12.791
v 209.673 0.228521 139.188
vt -209.673 0.228521
v 144.61 0.228521 139.188
vt -144.61 0.228521
v 144.61 12.5625 139.188
vt -144.61 12.5625
v 144.61 12.791 139.188
vt -144.61 12.791
v 151.235 12.791 139.188
vt -151.235 12.791
v 151.235 12.8535 139.188
vt -151.235 12.8535
v 155.098 10.7801 139.188
vt -155.098 10.7801
v 159.13 9.06056 139.188
vt -159.13 9.06056
v 163.3 7.7086 139.188
vt -163.3 7.7086
v 167.574 6.7351 139.188
vt -167.574 6.7351
v 171.918 6.14786 139.188
vt -171.918 6.14786
v 176.298 5.95159 139.188
vt -176.298 5.95159
v 180.677 6.14786 139.188
vt -180.677 6.14786
vt -185.021 6.7351
vt -189.295 7.7086
v 193.465 9.06056 139.188
vt -193.465 9.06056
f 5/5/3 6/6/3 7/7/3 8/8/3 9/9/3 10/10/3 11/11/3 12/12/3 13/13/3 14/14/3 15/15/3 16/16/3 17/17/3 18/18/3 19/19/3 20/20/3 21/21/3 2/22/3 1/23/3 22/24/3 

usemtl Granite_Brown
vt 6.02542 -5.79948
vn 0 1 -0
vt 8.73636 -5.79948
v 209.673 0.228521 86.3859
vt 8.73636 -3.59941
v 209.673 0.228521 82.5236
vt 8.73636 -3.43848
v 209.673 0.228521 74.2111
vt 8.73636 -3.09213
v 209.673 0.228521 0.1875
vt 8.73636 -0.0078125
v 144.61 0.228521 0.1875
vt 6.02542 -0.0078125
v 144.61 0.228521 74.2111
vt 6.02542 -3.09213
f 10/25/4 9/26/4 23/27/4 24/28/4 25/29/4 26/30/4 27/31/4 28/32/4 

usemtl FrontColor
vt 82.5236 0.228521
vn -1 0 -0
vt 86.3859 0.228521
v 209.673 12.791 82.5236
vt 82.5236 12.791
f 24/33/5 23/34/5 29/35/5

v 212.61 10.5516 86.3859
vt 207.815 30.2314
vn -0.718407 0.204427 0.664907
vt 202.985 32.5191
vt 205.82 19.6856
f 30/36/6 29/37/6 23/38/6

v 201.635 10.5516 86.3859
vt -201.635 -69.4403
vn -1.02631e-17 -0.865105 -0.501591
vt -209.673 -64.9757
vt -212.61 -69.4403
f 31/39/7 29/40/7 30/41/7

vt -219.11 54.0552
vn 0.15871 -0.960906 -0.226872
vt -214.738 45.967
v 197.498 10.7801 82.5236
vt -209.134 46.7923
f 29/42/8 31/43/8 32/44/8

vt -82.5236 208.954
vn 0.16296 -0.986633 -2.15596e-16
vt -82.5236 196.615
v 197.498 10.7801 74.2111
vt -74.2111 196.615
v 209.673 12.791 74.2111
vt -74.2111 208.954
f 29/45/9 32/46/9 33/47/9 34/48/9 

usemtl Water_Pool_Light
v 197.498 10.7801 0.1875
vt -0.00195312 -1.99995
vn 0.760786 -0.649002 -1.55845e-16
v 193.682 11.5067 0.1875
vt -0.00195312 -1.95949
vn 0.0989246 0.995095 3.93564e-16
v 193.682 11.5067 139.063
vt -1.44857 -1.95949
v 197.498 10.7801 139.063
vt -1.44857 -1.99995
vn 0.994232 0.107254 3.71875e-17
vt -0.859621 -1.99995
vt -0.773032 -1.99995
f 35/49/10 36/50/11 37/51/11 38/52/12 32/53/12 33/54/10 

v 155.098 10.7801 0.1875
vt -1.6156 0.112293
vn 7.43121e-17 4.44076e-16 -1
v 168.584 12.5171 0.1875
vt -1.75608 0.130386
v 179.152 9.80456 0.1875
vt -1.86617 0.102131
v 184.293 10.215 0.1875
vt -1.91972 0.106406
v 189.018 11.5533 0.1875
vt -1.96894 0.120347
vt -2.01753 0.119861
vt -2.05727 0.112293
v 193.465 9.06056 0.1875
vt -2.01526 0.0943808
v 189.295 7.7086 0.1875
vt -1.97183 0.080298
v 185.021 6.7351 0.1875
vt -1.9273 0.0701573
v 180.677 6.14786 0.1875
vt -1.88205 0.0640402
v 176.298 5.95159 0.1875
vt -1.83643 0.0619958
v 171.918 6.14786 0.1875
vt -1.79082 0.0640402
v 167.574 6.7351 0.1875
vt -1.74556 0.0701573
v 163.3 7.7086 0.1875
vt -1.70104 0.080298
v 159.13 9.06056 0.1875
vt -1.6576 0.0943808
f 39/55/13 40/56/13 41/57/13 42/58/13 43/59/13 36/60/13 35/61/13 44/62/13 45/63/13 46/64/13 47/65/13 48/66/13 49/67/13 50/68/13 51/69/13 52/70/13 

vt 0.00195313 1.75835
vn 0.0615397 0.998105 4.02716e-16
vt 0.00195313 1.61671
vn -0.775225 -0.631685 -4.84711e-17
v 155.098 10.7801 139.063
vt 1.44857 1.61671
vn -0.625263 -0.780414 -9.96628e-17
v 168.584 12.5171 139.063
vt 1.44857 1.75835
f 40/71/14 39/72/15 53/73/16 54/74/14 

usemtl Sandstone
vt 1.33991 -6.53819
vn -0.433055 -0.901368 -1.22942e-16
vt 1.46172 -6.53819
vn -0.472977 -0.881075 -8.69258e-17
v 151.235 12.8535 0.1875
vt 1.46172 -2.67708
vt 1.33991 -2.67708
vt 1.33991 -6.53472
f 15/75/17 14/76/18 55/77/18 39/78/15 53/79/16 

usemtl Granite_Brown
vt -0.0078125 0.535563
vn 1 -6.97136e-15 -0
vt -5.79948 0.535563
vt -5.79948 0.532959
v 151.235 12.791 0.1875
vt -0.0078125 0.532959
f 55/80/19 14/81/19 13/82/19 56/83/19 

vt -6.30147 -5.79948
vn -6.97136e-15 -1 -0
vt -6.02542 -5.79948
v 144.61 12.791 0.1875
vt -6.02542 -0.0078125
vt -6.30147 -0.0078125
f 13/84/20 12/85/20 57/86/20 56/87/20 

usemtl FrontColor
v 144.61 12.5625 132.649
vt -132.649 12.5625
vn 1 -2.11967e-15 -9.36099e-17
v 144.61 12.625 132.649
vt -132.649 12.625
v 144.61 12.625 82.5236
vt -82.5236 12.625
v 144.61 12.5625 82.5236
vt -82.5236 12.5625
v 144.61 12.5625 74.2111
vt -74.2111 12.5625
vt -74.2111 0.228521
vt -0.1875 0.228521
vt -0.1875 12.791
vt -139.188 12.791
vt -139.188 12.5625
f 58/88/21 59/89/21 60/90/21 61/91/21 62/92/21 28/93/21 27/94/21 57/95/21 12/96/21 11/97/21 

usemtl Granite_Brown
vn 8.17891e-16 -1.81899e-12 -1
v 283.61 12.625 132.649
v 283.61 12.5625 132.649
f 58/83/22 59/80/22 63/81/22 64/82/22 

vt 11.0768 0.535563
vn 0.795954 -2.9116e-13 0.605357
vt 11.0768 0.532959
v 147.548 10.5516 128.786
vt 11.279 0.449172
f 59/98/23 58/99/23 65/100/23

vt 6.30147 -4.66682
vn 0.56488 0.825173 -8.24772e-15
vt 6.02901 -4.66682
vn 0.820977 -0.458199 0.34066
vt 6.4624 -4.81514
vn 0.963315 0.0762355 0.257318
f 58/101/24 11/102/25 65/103/26

vn -1.24251e-18 -1 6.99675e-15
v 283.61 12.5625 139.274
v 144.61 12.5625 139.274
vt -6.02901 -0.0078125
f 64/84/27 66/85/27 67/86/27 11/104/27 58/87/27 

usemtl FrontColor
v 283.61 8.83204 90.4183
vt 90.4183 8.83204
vn -1 -9.62844e-16 -1.23505e-15
v 283.61 10.5516 86.3859
vt 86.3859 10.5516
v 283.61 12.5625 82.5236
vt 82.5236 12.5625
v 283.61 12.5625 74.2111
vt 74.2111 12.5625
v 283.61 0 74.2111
vt 74.2111 -2.73072e-13
v 283.61 0 139.274
vt 139.274 -2.73072e-13
vt 139.274 12.5625
vt 132.649 12.5625
vt 132.649 12.625
v 283.61 10.5516 128.786
vt 128.786 10.5516
v 283.61 8.83204 124.754
vt 124.754 8.83204
v 283.61 7.48008 120.584
vt 120.584 7.48008
v 283.61 6.50658 116.31
vt 116.31 6.50658
v 283.61 5.91934 111.965
vt 111.965 5.91934
v 283.61 5.72307 107.586
vt 107.586 5.72307
v 283.61 5.91934 103.207
vt 103.207 5.91934
v 283.61 6.50658 98.8626
vt 98.8626 6.50658
v 283.61 7.48008 94.5883
vt 94.5883 7.48008
f 68/105/28 69/106/28 70/107/28 71/108/28 72/109/28 73/110/28 66/111/28 64/112/28 63/113/28 74/114/28 75/115/28 76/116/28 77/117/28 78/118/28 79/119/28 80/120/28 81/121/28 82/122/28 

v 147.548 8.83204 90.4183
vt -147.548 -79.707
vn -7.35139e-16 -0.936493 -0.350686
v 147.548 10.5516 86.3859
vt -147.548 -75.3233
vn -6.68066e-16 0.107254 -0.994232
vt -201.635 -75.3233
vt -212.61 -75.3233
vn -1.29908e-15 -0.919853 -0.392264
vt -283.61 -75.3233
vt -283.61 -79.707
f 83/123/29 84/124/30 31/125/30 30/126/31 69/127/31 68/128/29 

usemtl Water_Pool_Light
v 147.548 5.91934 103.207
vt -4.03219 0.0640402
vn 1 1.05902e-14 1.89098e-15
v 147.548 6.50658 98.8626
vt -3.98694 0.0701573
v 147.548 7.48008 94.5883
vt -3.94242 0.080298
vt -3.89898 0.0943808
vt -3.85698 0.112293
v 147.548 11.2781 90.2013
vt -3.89672 0.119861
v 147.548 11.3248 94.8656
vt -3.94531 0.120347
v 147.548 9.98648 99.5905
vt -3.99452 0.106406
v 147.548 9.57604 104.731
vt -4.04807 0.102131
v 147.548 12.2886 115.3
vt -4.15816 0.130386
vt -4.29865 0.112293
v 147.548 8.83204 124.754
vt -4.25664 0.0943808
v 147.548 7.48008 120.584
vt -4.2132 0.080298
v 147.548 6.50658 116.31
vt -4.16868 0.0701573
v 147.548 5.91934 111.965
vt -4.12343 0.0640402
v 147.548 5.72307 107.586
vt -4.07781 0.0619958
f 85/129/32 86/130/32 87/131/32 83/132/32 84/133/32 88/134/32 89/135/32 90/136/32 91/137/32 92/138/32 65/139/32 93/140/32 94/141/32 95/142/32 96/143/32 97/144/32 

usemtl FrontColor
vt -147.548 -101.484
vn -2.01958e-16 -0.995991 -0.0894561
vt -147.548 -97.0999
vn -1.87041e-16 -0.983995 -0.178195
vt -283.61 -97.0999
vt -283.61 -101.484
f 85/145/33 86/146/34 81/147/34 80/148/33 

usemtl Granite_Brown
vt 7.45893 2.01326
vn 0.962863 -0.265865 -0.0470273
vt 7.27807 1.98768
vn 0.939933 -0.34017 -0.0284596
vt 8.49025 1.73975
vn 0.929871 -0.359237 -0.0793032
f 86/149/35 85/150/36 28/151/37

vt 7.41321 2.58647
vt 7.23077 2.5776
vn 0.869946 -0.493125 0.00461515
vt 8.62345 2.32927
f 85/152/36 97/153/38 28/154/37

usemtl FrontColor
vt -147.548 -107.222
vn -2.13699e-16 -1 -1.23636e-15
vt -147.548 -102.838
vt -283.61 -102.838
vt -283.61 -107.222
f 97/155/39 85/156/33 80/157/33 79/158/39 

usemtl Sandstone
vt 0.609051 -6.53819
vn -2.06954e-14 -0.995991 -0.0894561
v 286.423 5.91934 103.207
vt 0.609051 -6.61632
v 286.423 5.72307 107.586
vt 0.730862 -6.61632
vn -2.06078e-14 -1 -1.34402e-15
vt 0.730862 -6.53819
f 80/159/40 98/160/40 99/161/41 79/162/41 

vn -1.79799e-14 -0.983995 -0.178195
v 286.423 6.50658 98.8626
vt 0.487241 -6.61632
f 81/2/42 100/163/42 98/160/40 80/159/40 

vn -9.61505e-15 -0.96411 -0.265505
v 286.423 7.48008 94.5883
vt 0.365431 -6.61632
f 82/1/43 101/164/43 100/163/42 81/2/42 

vt 0.243621 -6.53819
vn -5.18133e-15 -0.936493 -0.350686
v 286.423 8.83204 90.4183
vt 0.243621 -6.61632
f 68/165/44 102/166/44 101/164/43 82/1/43 

v 286.423 10.5516 86.3859
vt 0.12181 -6.61632
vn -6.35947e-15 -0.919853 -0.392264
vt 0.12181 -6.53819
f 103/167/45 102/166/44 68/165/44 69/168/45 

usemtl Water_Pool_Light
vt 1.9273 0.0701573
vn 1 4.41451e-15 -1.73443e-15
vt 1.97183 0.080298
vt 2.01526 0.0943808
vt 2.05727 0.112293
v 286.423 11.2781 90.2013
vt 2.01753 0.119861
v 286.423 11.3248 94.8656
vt 1.96894 0.120347
v 286.423 9.98648 99.5905
vt 1.91972 0.106406
v 286.423 9.57604 104.731
vt 1.86617 0.102131
v 286.423 12.2886 115.3
vt 1.75608 0.130386
v 286.423 10.5516 128.786
vt 1.6156 0.112293
v 286.423 8.83204 124.754
vt 1.6576 0.0943808
v 286.423 7.48008 120.584
vt 1.70104 0.080298
v 286.423 6.50658 116.31
vt 1.74556 0.0701573
v 286.423 5.91934 111.965
vt 1.79082 0.0640402
vt 1.83643 0.0619958
vt 1.88205 0.0640402
f 100/169/46 101/170/46 102/171/46 103/172/46 104/173/46 105/174/46 106/175/46 107/176/46 108/177/46 109/178/46 110/179/46 111/180/46 112/181/46 113/182/46 99/183/46 98/184/46 

vn 6.29553e-16 0.995095 -0.0989246
vn 9.09805e-16 0.982348 -0.187062
vt -1.41927 -1.99995
vt -0.679687 -1.99995
vt -0.565367 -1.99995
f 84/49/30 88/50/47 104/51/47 103/52/48 69/185/48 30/186/48 31/187/30 

usemtl FrontColor
vt -113.54 -84.1638
vn 0.684653 0.716004 -0.136344
vt -109.178 -81.1938
vn 0.568381 0.819457 -0.0737098
vt -117.281 -83.1231
f 84/188/49 60/189/50 88/190/50

usemtl Granite_Brown
vt 5.44408 0.535563
vn 0.795954 5.8232e-13 -0.605357
vt 5.24189 0.449172
vt 5.44408 0.532959
f 60/191/51 84/192/51 61/193/51

vt 5.87622 -0.61219
vn 0.827341 0.31392 -0.46579
vt 5.67593 -0.700438
vn 0.955202 0.0679202 -0.288057
vt 6.17803 -1.15347
f 61/194/52 84/195/53 28/196/37

vt 7.74599 1.52422
vt 7.57852 1.4513
vn 0.977839 -0.196186 -0.0730853
vt 8.26148 1.0865
f 84/197/53 83/198/54 28/199/37

vt 7.64842 1.58509
vt 7.47508 1.52751
vn 0.972873 -0.223202 -0.0608154
vt 8.33053 1.21868
f 83/200/54 87/201/55 28/202/37

usemtl FrontColor
vt -147.548 -87.6708
vn -1.76639e-16 -0.96411 -0.265505
vt -147.548 -83.287
vt -283.61 -83.287
vt -283.61 -87.6708
f 87/203/56 83/204/29 68/205/29 82/206/56 

vt -147.548 -94.9491
vt -147.548 -90.5654
vt -283.61 -90.5654
vt -283.61 -94.9491
f 86/207/34 87/208/56 82/209/56 81/210/34 

usemtl Granite_Brown
vt 7.54822 1.72882
vt 7.37041 1.68704
vt 8.40281 1.41761
f 87/211/55 86/212/35 28/213/37

vt 8.73636 0.532959
vn 1 0 -0
vt 8.39001 0.532959
vt 8.73636 0.0190434
f 62/214/57 61/215/57 28/216/57

usemtl FrontColor
vt -93.2269 -126.148
vt -85.4902 -123.06
vt -97.8902 -126.041
vn 0.436112 0.899847 -0.00900152
f 88/217/50 60/218/50 89/219/58

vt -105.44 -111.818
vn 0.539096 0.841309 -0.0396794
vt -92.9161 -109.413
vt -125.819 -110.035
f 89/220/59 60/221/59 92/222/59

vt -115.3 -145.191
vn 0.113792 0.993505 7.88713e-15
vt -82.5236 -142.234
vt -132.649 -142.234
f 92/223/60 60/224/60 59/225/60

vt -105.932 -116.389
vn 0.655509 0.749001 0.0964647
vt -92.5894 -113.767
vt -110.181 -113.259
f 65/226/61 92/227/61 59/228/61

usemtl Water_Pool_Light
vn 2.18332e-16 0.998105 -0.0615397
vn -5.24415e-16 -0.631685 0.775225
vt 1.41927 1.61671
vn -9.35076e-16 -0.780414 0.625263
vn -2.67945e-15 0.13707 0.990561
f 92/71/62 65/72/63 74/229/64 109/73/65 108/74/62 

usemtl FrontColor
vt 147.548 122.603
vt 147.548 118.22
vn -2.49461e-16 -0.936493 0.350686
vt 283.61 118.22
vt 283.61 122.603
f 65/230/63 93/231/66 75/232/66 74/233/64 

usemtl Granite_Brown
vt 9.88292 6.11472
vt 9.4417 6.23782
vt 10.0322 6.00945
vn 0.456617 -0.834429 0.308592
f 65/234/26 11/235/25 93/236/67

vt 12.514 7.45655
vt 12.0028 7.83003
vt 12.6367 7.3212
vn 0.293771 -0.909282 0.294797
f 93/237/67 11/238/25 94/239/68

vt 7.03975 0.532959
vn 0.987762 0 0.155967
vt 7.03975 0.0190434
vt 7.8245 0.321192
f 11/240/69 10/241/69 94/242/69

v 144.61 0 74.2111
vt 8.73636 0.0095217
vt 6.02901 0.0190434
vt 6.02901 0.532959
vt 6.02542 0.532959
v 144.61 0 139.274
vt 6.02542 0.0095217
f 114/243/57 28/216/57 10/244/57 11/245/57 67/246/57 115/247/57 

vt 8.73636 2.57173
vn 0.905755 -0.423802 -2.78465e-18
vt 6.98226 2.86054
vn 0.941018 -0.337172 0.0283002
vt 6.02901 2.57173
f 28/248/70 95/249/71 10/250/71

vt 11.4074 7.55835
vn 0.536758 -0.839467 0.0847725
vt 11.2575 7.66265
vn 0.19434 -0.972093 0.131406
vt 12.642 6.5476
f 96/251/72 95/252/73 28/253/37

usemtl FrontColor
vt 147.548 116.133
vn -2.21708e-16 -0.983995 0.178195
vt 147.548 111.749
vn -2.30469e-16 -0.995991 0.0894561
vt 283.61 111.749
vt 283.61 116.133
f 95/254/74 96/255/75 78/256/75 77/257/74 

vt 147.548 112.118
vt 147.548 107.734
vt 283.61 107.734
vt 283.61 112.118
f 96/258/75 97/259/39 79/260/39 78/261/75 

usemtl Granite_Brown
vt 7.55046 3.92547
vt 7.36809 3.93562
vt 8.93631 3.64145
f 97/262/38 96/263/72 28/264/37

usemtl Sandstone
vt 0.852672 -6.61632
vn -2.13148e-14 -0.995991 0.0894561
vt 0.852672 -6.53819
f 99/161/41 113/265/76 78/266/76 79/162/41 

vt 0.974482 -6.61632
vn -2.14729e-14 -0.983995 0.178195
vt 0.974482 -6.53819
f 78/266/76 113/265/76 112/267/77 77/268/77 

vt 1.09629 -6.61632
vn -1.63386e-14 -0.96411 0.265505
vt 1.09629 -6.53819
f 112/267/77 111/269/78 76/270/78 77/268/77 

vt 1.2181 -6.61632
vn -6.60549e-15 -0.936493 0.350686
vt 1.2181 -6.53819
f 76/270/78 111/269/78 110/271/79 75/272/79 

vt 1.33991 -6.61632
f 110/271/79 109/273/65 74/75/64 75/272/79 

usemtl FrontColor
vt 147.548 121.397
vt 147.548 117.013
vn -1.60571e-16 -0.96411 0.265505
vt 283.61 117.013
vt 283.61 121.397
f 93/274/66 94/275/80 76/276/80 75/277/66 

vt 147.548 119.234
vt 147.548 114.85
vt 283.61 114.85
vt 283.61 119.234
f 94/278/80 95/279/74 77/280/74 76/281/80 

usemtl Granite_Brown
vt 7.34786 1.85981
vt 7.17007 1.90168
vn 0.967294 -0.247323 0.0563302
vt 6.38911 1.58984
f 95/282/71 94/283/81 10/284/71

usemtl FrontColor
vt -283.61 12.5625
vn -4.08945e-16 0 -1
vt -283.61 0
vt -144.61 0
f 66/285/82 73/286/82 115/287/82 67/11/82 

vt 283.61 -139.274
vt 283.61 -74.2111
v 235.445 0 74.2111
vt 235.445 -74.2111
vt 144.61 -74.2111
vt 144.61 -139.274
f 73/288/4 72/289/4 116/290/4 114/291/4 115/292/4 

v 235.445 12.5625 74.2111
vt 235.445 12.5625
vn -5.90091e-16 -1.13121e-15 1
v 235.445 6.28125 74.2111
vt 235.445 6.28125
vt 235.445 8.39485e-14
vt 283.61 8.39485e-14
f 117/293/83 118/294/83 116/295/83 72/296/83 

vt 209.673 0.228521
vn -1.00303e-17 -1.13121e-15 1
f 25/297/84 116/295/84 118/294/84 117/293/84 

vn -5.51396e-16 -9.59316e-32 1
v 209.673 12.5625 74.2111
vt 209.673 12.5625
f 25/297/85 117/293/85 119/298/85

vt 235.445 74.5283
vn -1.67137e-17 -0.999622 0.0274808
vt 209.673 82.8439
vt 209.673 74.5283
f 117/299/86 29/300/86 119/301/86

vt 244.636 33.3107
vn -0.00309022 -0.999835 0.0179056
v 246.641 12.6768 82.5236
vt 257.083 39.599
vt 220.653 45.8873
f 117/302/87 120/303/87 29/304/87

vt 293.513 33.3107
f 117/302/87 70/305/87 120/303/87

vt -283.61 -82.5236
vn 0 -1 -0
vt -235.445 -74.2111
vt -283.61 -74.2111
f 70/306/88 117/307/88 71/308/88

vn -2.95045e-16 1.05907e-31 1
vt 283.61 -7.85951e-30
vt 283.61 12.5625
f 117/293/89 72/309/89 71/310/89

vt -283.115 -68.8833
vn -0.00274131 -0.886946 -0.461866
v 256.988 11.3555 84.9994
vt -256.479 -71.4966
vt -209.179 -68.3886
vt -246.147 -68.6359
f 70/311/90 121/312/90 29/313/90 120/314/90 

vt -256.511 -71.4991
vn -0.00256202 -0.887745 -0.460328
vt -283.146 -68.8771
vt -285.937 -73.2454
f 121/315/91 70/316/91 103/317/91

vt 283.61 -71.7504
vn 1.57022e-14 0.886985 0.461798
vt 286.423 -71.7504
vt 283.61 -67.3959
f 69/318/92 103/319/92 70/320/92

vt -283.61 -69.4403
vn -1.89482e-16 -0.865105 -0.501591
vt -256.988 -67.8376
vt -286.423 -69.4403
f 69/321/93 30/41/93 29/40/93 121/322/93 103/323/93 

v 283.61 12.625 82.5236
vt 82.5236 12.625
vn -1 0 -2.94345e-14
f 122/324/94 70/107/94 69/106/94

vt 74.2111 12.791
f 119/108/5 29/35/5 34/325/5

vt 74.2111 0.228521
f 24/33/5 29/35/5 119/108/5 25/326/5 

v 209.673 12.791 0.1875
vt 0.1875 12.791
vt 0.1875 0.228521
f 25/326/5 119/108/5 123/327/5 26/328/5 

v 209.673 12.791 37.1993
vt 37.1993 12.791
f 124/329/5 123/327/5 119/108/5 34/325/5 

vt 37.1993 -209.571
vn -0.00751858 -0.999972 -0
v 201.36 12.8535 21.1642
vt 21.1642 -201.258
v 201.36 12.8535 0.1875
vt 0.1875 -201.258
vt 0.1875 -209.571
f 124/330/95 125/331/95 126/332/95 123/333/95 

vn -0.00751858 -0.999972 5.76824e-20
v 201.36 12.8535 72.875
vt 72.875 -201.258
f 124/330/96 127/334/96 125/331/96

vt 74.2111 -209.571
vn -0.00751858 -0.999972 4.50387e-19
f 34/335/97 127/334/97 124/330/97

vt 218.792 12.791
vn -0.158694 7.29068e-16 0.987328
vt 210.373 12.8535
vt 218.792 12.5625
f 34/336/98 127/337/98 119/338/98

vt -210.095 -18.5921
vn 0.111825 -0.67704 -0.727401
vt -218.514 -18.677
vt -206.481 -21.4094
f 127/339/99 34/340/99 33/341/99

vt -72.875 183.493
vn 0.472977 -0.881075 -1.50154e-16
vt -74.2111 179.109
vt -0.1875 179.109
vt -0.1875 183.493
vt -21.1642 183.493
f 127/342/100 33/343/10 35/344/10 126/345/100 125/346/100 

vt 117.373 95.1307
vn 0.507832 -0.488984 0.709226
vt 121.291 97.5077
v 199.214 12.5625 74.2111
vt 118.769 97.1741
f 33/347/101 127/348/101 128/349/101

vt -74.2111 147.227
vn 0.720348 -0.693613 -2.34638e-16
vt -74.2111 144.752
vt -0.1875 144.752
f 128/350/102 33/351/10 35/352/10

vt -0.1875 181.514
vn 0.350686 -0.936493 -3.38546e-16
vt -0.1875 185.898
vt -74.2111 185.898
vt -82.5236 185.898
vt -139.063 185.898
v 193.465 9.06056 139.063
vt -139.063 181.514
f 44/353/103 35/354/10 33/355/10 32/356/12 38/357/12 129/358/103 

usemtl Granite_Brown
vn 0 0 1
v 201.36 12.791 0.1875
vt 8.22907 0.449172
vt 8.06106 0.377523
vt 7.88731 0.321192
vt 7.70922 0.280629
vt 7.52821 0.256161
vt 7.34574 0.247983
vt 7.16326 0.256161
vt 6.98226 0.280629
vt 6.80416 0.321192
vt 6.63041 0.377523
vt 6.4624 0.449172
vt 6.30147 0.535563
vt 6.30147 0.532959
f 123/214/104 130/215/104 35/359/104 44/360/104 45/361/104 46/362/104 47/363/104 48/364/104 49/365/104 50/366/104 51/367/104 52/368/104 39/369/104 55/370/104 56/371/104 57/246/104 27/247/104 26/243/104 

usemtl FrontColor
vt 209.673 12.791
vt 201.36 12.8535
vt 201.36 12.791
f 123/372/104 126/373/104 130/374/104

usemtl Granite_Brown
vt 8.39001 0.535563
f 126/375/104 35/359/104 130/215/104

usemtl FrontColor
vt -0.1875 182.446
vn 0.265505 -0.96411 -3.79543e-16
vt -0.1875 186.829
vt -139.063 186.829
vt -139.063 182.446
f 45/376/105 44/377/103 129/378/103 4/379/105 

usemtl Sandstone
vn 0.350686 -0.936493 -1.68796e-16
vt 0.243621 -6.53472
f 22/165/106 1/1/1 4/4/1 129/380/106 

usemtl Water_Pool_Light
v 159.13 9.06056 139.063
v 163.3 7.7086 139.063
v 167.574 6.7351 139.063
v 171.918 6.14786 139.063
v 176.298 5.95159 139.063
v 180.677 6.14786 139.063
v 189.018 11.5533 139.063
v 184.293 10.215 139.063
v 179.152 9.80456 139.063
f 54/177/104 53/178/104 131/179/104 132/180/104 133/181/104 134/182/104 135/183/104 136/184/104 3/169/104 4/170/104 129/171/104 38/172/104 37/173/104 137/174/104 138/175/104 139/176/104 

usemtl FrontColor
vt 0.1875 -138.438
vt 0.1875 -142.822
vn -0.350686 -0.936493 -3.38721e-16
vt 139.062 -142.822
vt 139.062 -138.438
f 39/381/15 52/382/107 131/383/107 53/384/16 

vt 0.1875 -148.579
vt 0.1875 -152.963
vn -0.265505 -0.96411 -3.79718e-16
vt 139.062 -152.963
vt 139.062 -148.579
f 52/385/107 51/386/108 132/387/108 131/388/107 

vt 0.1875 -157.51
vt 0.1875 -161.894
vn -0.178195 -0.983995 -4.0276e-16
vt 139.062 -161.894
vt 139.062 -157.51
f 51/389/108 50/390/109 133/391/109 132/392/108 

vt 0.1875 -165.162
vt 0.1875 -169.545
vn -0.0894561 -0.995991 -4.0749e-16
vt 139.062 -169.545
vt 139.062 -165.162
f 50/393/109 49/394/110 134/395/110 133/396/109 

vt 0.1875 -171.471
vt 0.1875 -175.854
vn 9.55056e-16 -1 -4.09314e-16
vt 139.062 -175.854
vt 139.062 -171.471
f 49/397/110 48/398/111 135/399/111 134/400/110 

vt -0.1875 176.387
vt -0.1875 180.771
vn 0.0894561 -0.995991 -4.0749e-16
vt -139.063 180.771
vt -139.063 176.387
f 48/401/111 47/402/112 136/403/112 135/404/111 

vt -0.1875 179.872
vt -0.1875 184.256
vn 0.178195 -0.983995 -4.0276e-16
vt -139.063 184.256
vt -139.063 179.872
f 47/405/112 46/406/113 3/407/113 136/408/112 

vt -0.1875 181.897
vt -0.1875 186.281
vt -139.063 186.281
vt -139.063 181.897
f 46/409/113 45/410/105 4/411/105 3/412/113 

usemtl Sandstone
vn 0.0894561 -0.995991 -2.0328e-16
vt 0.609051 -6.53472
f 2/2/2 21/159/114 136/413/114 3/3/2 

vn 9.51583e-16 -1 -2.04247e-16
vt 0.730862 -6.53472
f 21/159/114 20/162/115 135/414/115 136/413/114 

vn -0.0894561 -0.995991 -2.0348e-16
vt 0.852672 -6.53472
f 20/162/115 19/266/116 134/415/116 135/414/115 

vn -0.178195 -0.983995 -2.01092e-16
vt 0.974482 -6.53472
f 19/266/116 18/268/117 133/416/117 134/415/116 

vn -0.265505 -0.96411 -1.89617e-16
vt 1.09629 -6.53472
f 18/268/117 17/270/118 132/417/118 133/416/117 

vn -0.350686 -0.936493 -1.69292e-16
vt 1.2181 -6.53472
f 17/270/118 16/272/119 131/418/119 132/417/118 

f 16/272/119 15/75/17 53/79/16 131/418/119 

vn 0.392264 -0.919853 -1.58496e-16
vt 0.12181 -6.53472
f 5/168/120 22/165/106 129/380/106 38/419/120 

usemtl Water_Pool_Light
vt -0.00195312 -2.01623
vt -0.00195312 -1.96764
vn -0.132616 0.991168 4.30299e-16
vt -1.44857 -1.96764
vt -1.44857 -2.01623
f 36/420/11 43/421/121 137/422/121 37/423/11 

vt 0.00195313 1.92721
vt 0.00195313 1.87606
vn -0.176907 0.984228 4.23925e-16
vt 1.44857 1.87606
vt 1.44857 1.92721
f 43/424/121 42/425/122 138/426/122 137/427/121 

vt 0.00195313 1.9221
vt 0.00195313 1.86838
vn 0.0856823 0.996323 4.4881e-16
vt 1.44857 1.86838
vt 1.44857 1.9221
f 42/428/122 41/429/123 139/430/123 138/431/122 

vt -0.00195312 -1.78219
vt -0.00195312 -1.66853
vt -1.44857 -1.66853
vt -1.44857 -1.78219
f 41/432/123 40/433/14 54/434/14 139/435/123 

usemtl Sandstone
vt 1.33991 -2.75868
vn -2.90967e-16 -0.881075 0.472977
f 65/436/63 74/75/64 63/76/124 59/77/124 

usemtl Water_Pool_Light
vn 3.99639e-16 0.996323 -0.0856823
f 91/432/125 92/433/62 108/434/62 107/435/125 

usemtl FrontColor
vt -115.3 12.2886
vt -104.731 9.57604
vt -99.5905 9.98648
vt -94.8656 11.3248
f 92/437/57 91/438/57 90/439/57 89/440/57 

usemtl Water_Pool_Light
vn 3.71309e-16 0.984228 0.176907
f 90/428/126 91/429/125 107/430/125 106/431/126 

vn 3.69022e-16 0.991168 0.132616
f 89/424/127 90/425/126 106/426/126 105/427/127 

f 88/420/47 89/421/127 105/422/127 104/423/47 

